<svg xmlns="http://www.w3.org/2000/svg" viewBox="0 0 512 512">
  <defs>
    <linearGradient id="bg" x1="58" y1="50" x2="458" y2="470" gradientUnits="userSpaceOnUse"><stop stop-color="#11111B"/><stop offset=".46" stop-color="#4C1D95"/><stop offset="1" stop-color="#BE123C"/></linearGradient>
    <linearGradient id="heart" x1="151" y1="133" x2="371" y2="381" gradientUnits="userSpaceOnUse"><stop stop-color="#FFF"/><stop offset=".45" stop-color="#DDD6FE"/><stop offset="1" stop-color="#FDA4AF"/></linearGradient>
    <filter id="glow"><feGaussianBlur stdDeviation="12" result="b"/><feMerge><feMergeNode in="b"/><feMergeNode in="SourceGraphic"/></feMerge></filter>
  </defs>
  <rect width="512" height="512" rx="128" fill="url(#bg)"/>
  <circle cx="256" cy="256" r="178" fill="none" stroke="#fff" stroke-opacity=".08" stroke-width="2"/>
  <circle cx="256" cy="256" r="134" fill="none" stroke="#C4B5FD" stroke-opacity=".2" stroke-width="2" stroke-dasharray="5 12"/>
  <path d="M256 385c-36-33-133-104-133-191 0-52 39-88 87-88 28 0 49 13 66 36 17-23 38-36 66-36 48 0 87 36 87 88 0 87-97 158-133 191-22 20-18 20-40 0Z" fill="url(#heart)" filter="url(#glow)"/>
  <path d="M402 92l6 18 18 6-18 6-6 18-6-18-18-6 18-6 6-18Z" fill="#67E8F9"/>
  <path d="M106 347l5 14 14 5-14 5-5 14-5-14-14-5 14-5 5-14Z" fill="#FDA4AF"/>
</svg>